<svg xmlns="http://www.w3.org/2000/svg" width="1891" height="371" overflow="visible" viewBox="0 0 1891 371"><defs><clipPath id="ideogram_referenceFrame_0_guid_twgl_clip_rect"><rect x="0" y="0" width="1787" height="16"/></clipPath><clipPath id="ruler_referenceFrame_0_guid_zfy4_clip_rect"><rect x="0" y="0" width="1787" height="40"/></clipPath><clipPath id="Galaxy35Baktaondata27_AnnotationandsequencesGFF3gff3_referenceFrame_0_guid_pavk_clip_rect"><rect x="0" y="0" width="1787" height="300"/></clipPath><clipPath id="Galaxy35Baktaondata27_AnnotationandsequencesGFF3gff3_track_label_guid_sgn0_clip_rect"><rect x="0" y="0" width="409.421875" height="15"/></clipPath></defs><rect id="svg_output_backdrop" width="100%" height="100%" fill="white"/><g id="root-group"><g transform="translate(50,5)" clip-path="url(#ideogram_referenceFrame_0_guid_twgl_clip_rect)"><g><rect fill="rgb(255,255,255)" stroke="none" x="0" y="0" width="1787" height="16"/></g><path fill="none" stroke="rgb(41,41,41)" paint-order="fill stroke markers" d=" M 8 0.5 L 1779 0.5 Q 1786.5 0.5 1786.5 8 L 1786.5 8 Q 1786.5 15.5 1779 15.5 L 8 15.5 Q 0.5 15.5 0.5 8 L 0.5 8 Q 0.5 0.5 8 0.5 Z" stroke-miterlimit="10" stroke-dasharray=""/><g><rect fill="none" stroke="red" x="671" y="1" width="444" height="14" stroke-miterlimit="10" stroke-width="2" stroke-dasharray=""/></g></g><g transform="translate(50,26)" clip-path="url(#ruler_referenceFrame_0_guid_zfy4_clip_rect)"><rect fill="#FFFFFF" stroke="none" x="0" y="0" width="1787" height="40"/><text fill="#000000" stroke="none" font-family="sans-serif" font-size="10px" font-style="normal" font-weight="normal" text-decoration="normal" x="87" y="32" text-anchor="start" dominant-baseline="alphabetic">35 kb</text><path fill="none" stroke="#000000" paint-order="fill stroke markers" d=" M 99.5 34.5 L 99.5 38.5" stroke-miterlimit="10" stroke-dasharray=""/><path fill="none" stroke="#000000" paint-order="fill stroke markers" d=" M 297.5 34.5 L 297.5 38.5" stroke-miterlimit="10" stroke-dasharray=""/><text fill="#000000" stroke="none" font-family="sans-serif" font-size="10px" font-style="normal" font-weight="normal" text-decoration="normal" x="484" y="32" text-anchor="start" dominant-baseline="alphabetic">40 kb</text><path fill="none" stroke="#000000" paint-order="fill stroke markers" d=" M 496.5 34.5 L 496.5 38.5" stroke-miterlimit="10" stroke-dasharray=""/><path fill="none" stroke="#000000" paint-order="fill stroke markers" d=" M 694.5 34.5 L 694.5 38.5" stroke-miterlimit="10" stroke-dasharray=""/><text fill="#000000" stroke="none" font-family="sans-serif" font-size="10px" font-style="normal" font-weight="normal" text-decoration="normal" x="881" y="32" text-anchor="start" dominant-baseline="alphabetic">45 kb</text><path fill="none" stroke="#000000" paint-order="fill stroke markers" d=" M 893.5 34.5 L 893.5 38.5" stroke-miterlimit="10" stroke-dasharray=""/><path fill="none" stroke="#000000" paint-order="fill stroke markers" d=" M 1091.5 34.5 L 1091.5 38.5" stroke-miterlimit="10" stroke-dasharray=""/><text fill="#000000" stroke="none" font-family="sans-serif" font-size="10px" font-style="normal" font-weight="normal" text-decoration="normal" x="1278" y="32" text-anchor="start" dominant-baseline="alphabetic">50 kb</text><path fill="none" stroke="#000000" paint-order="fill stroke markers" d=" M 1290.5 34.5 L 1290.5 38.5" stroke-miterlimit="10" stroke-dasharray=""/><path fill="none" stroke="#000000" paint-order="fill stroke markers" d=" M 1489.5 34.5 L 1489.5 38.5" stroke-miterlimit="10" stroke-dasharray=""/><text fill="#000000" stroke="none" font-family="sans-serif" font-size="10px" font-style="normal" font-weight="normal" text-decoration="normal" x="1676" y="32" text-anchor="start" dominant-baseline="alphabetic">55 kb</text><path fill="none" stroke="#000000" paint-order="fill stroke markers" d=" M 1688.5 34.5 L 1688.5 38.5" stroke-miterlimit="10" stroke-dasharray=""/><path fill="none" stroke="#000000" paint-order="fill stroke markers" d=" M 1886.5 34.5 L 1886.5 38.5" stroke-miterlimit="10" stroke-dasharray=""/><text fill="#000000" stroke="none" font-family="sans-serif" font-size="10px" font-style="normal" font-weight="normal" text-decoration="normal" x="2073" y="32" text-anchor="start" dominant-baseline="alphabetic">60 kb</text><path fill="none" stroke="#000000" paint-order="fill stroke markers" d=" M 2085.5 34.5 L 2085.5 38.5" stroke-miterlimit="10" stroke-dasharray=""/><path fill="none" stroke="#000000" paint-order="fill stroke markers" d=" M 2283.5 34.5 L 2283.5 38.5" stroke-miterlimit="10" stroke-dasharray=""/><path fill="none" stroke="#000000" paint-order="fill stroke markers" d=" M 0.5 38.5 L 1787.5 38.5" stroke-miterlimit="10" stroke-dasharray=""/></g><g transform="translate(50,71)" clip-path="url(#Galaxy35Baktaondata27_AnnotationandsequencesGFF3gff3_referenceFrame_0_guid_pavk_clip_rect)"><g><rect fill="rgb(255, 255, 255)" stroke="none" x="0" y="0" width="1787" height="300"/></g><g><rect fill="rgb(0,0,150)" stroke="none" x="0" y="10" width="1787" height="14"/><path fill="none" stroke="white" paint-order="fill stroke markers" d=" M 13.5 15.5 L 15.5 17.5" stroke-miterlimit="10" stroke-dasharray=""/><path fill="none" stroke="white" paint-order="fill stroke markers" d=" M 13.5 19.5 L 15.5 17.5" stroke-miterlimit="10" stroke-dasharray=""/><path fill="none" stroke="white" paint-order="fill stroke markers" d=" M 43.5 15.5 L 45.5 17.5" stroke-miterlimit="10" stroke-dasharray=""/><path fill="none" stroke="white" paint-order="fill stroke markers" d=" M 43.5 19.5 L 45.5 17.5" stroke-miterlimit="10" stroke-dasharray=""/><path fill="none" stroke="white" paint-order="fill stroke markers" d=" M 73.5 15.5 L 75.5 17.5" stroke-miterlimit="10" stroke-dasharray=""/><path fill="none" stroke="white" paint-order="fill stroke markers" d=" M 73.5 19.5 L 75.5 17.5" stroke-miterlimit="10" stroke-dasharray=""/><path fill="none" stroke="white" paint-order="fill stroke markers" d=" M 103.5 15.5 L 105.5 17.5" stroke-miterlimit="10" stroke-dasharray=""/><path fill="none" stroke="white" paint-order="fill stroke markers" d=" M 103.5 19.5 L 105.5 17.5" stroke-miterlimit="10" stroke-dasharray=""/><path fill="none" stroke="white" paint-order="fill stroke markers" d=" M 133.5 15.5 L 135.5 17.5" stroke-miterlimit="10" stroke-dasharray=""/><path fill="none" stroke="white" paint-order="fill stroke markers" d=" M 133.5 19.5 L 135.5 17.5" stroke-miterlimit="10" stroke-dasharray=""/><path fill="none" stroke="white" paint-order="fill stroke markers" d=" M 163.5 15.5 L 165.5 17.5" stroke-miterlimit="10" stroke-dasharray=""/><path fill="none" stroke="white" paint-order="fill stroke markers" d=" M 163.5 19.5 L 165.5 17.5" stroke-miterlimit="10" stroke-dasharray=""/><path fill="none" stroke="white" paint-order="fill stroke markers" d=" M 193.5 15.5 L 195.5 17.5" stroke-miterlimit="10" stroke-dasharray=""/><path fill="none" stroke="white" paint-order="fill stroke markers" d=" M 193.5 19.5 L 195.5 17.5" stroke-miterlimit="10" stroke-dasharray=""/><path fill="none" stroke="white" paint-order="fill stroke markers" d=" M 223.5 15.5 L 225.5 17.5" stroke-miterlimit="10" stroke-dasharray=""/><path fill="none" stroke="white" paint-order="fill stroke markers" d=" M 223.5 19.5 L 225.5 17.5" stroke-miterlimit="10" stroke-dasharray=""/><path fill="none" stroke="white" paint-order="fill stroke markers" d=" M 253.5 15.5 L 255.5 17.5" stroke-miterlimit="10" stroke-dasharray=""/><path fill="none" stroke="white" paint-order="fill stroke markers" d=" M 253.5 19.5 L 255.5 17.5" stroke-miterlimit="10" stroke-dasharray=""/><path fill="none" stroke="white" paint-order="fill stroke markers" d=" M 283.5 15.5 L 285.5 17.5" stroke-miterlimit="10" stroke-dasharray=""/><path fill="none" stroke="white" paint-order="fill stroke markers" d=" M 283.5 19.5 L 285.5 17.5" stroke-miterlimit="10" stroke-dasharray=""/><path fill="none" stroke="white" paint-order="fill stroke markers" d=" M 313.5 15.5 L 315.5 17.5" stroke-miterlimit="10" stroke-dasharray=""/><path fill="none" stroke="white" paint-order="fill stroke markers" d=" M 313.5 19.5 L 315.5 17.5" stroke-miterlimit="10" stroke-dasharray=""/><path fill="none" stroke="white" paint-order="fill stroke markers" d=" M 343.5 15.5 L 345.5 17.5" stroke-miterlimit="10" stroke-dasharray=""/><path fill="none" stroke="white" paint-order="fill stroke markers" d=" M 343.5 19.5 L 345.5 17.5" stroke-miterlimit="10" stroke-dasharray=""/><path fill="none" stroke="white" paint-order="fill stroke markers" d=" M 373.5 15.5 L 375.5 17.5" stroke-miterlimit="10" stroke-dasharray=""/><path fill="none" stroke="white" paint-order="fill stroke markers" d=" M 373.5 19.5 L 375.5 17.5" stroke-miterlimit="10" stroke-dasharray=""/><path fill="none" stroke="white" paint-order="fill stroke markers" d=" M 403.5 15.5 L 405.5 17.5" stroke-miterlimit="10" stroke-dasharray=""/><path fill="none" stroke="white" paint-order="fill stroke markers" d=" M 403.5 19.5 L 405.5 17.5" stroke-miterlimit="10" stroke-dasharray=""/><path fill="none" stroke="white" paint-order="fill stroke markers" d=" M 433.5 15.5 L 435.5 17.5" stroke-miterlimit="10" stroke-dasharray=""/><path fill="none" stroke="white" paint-order="fill stroke markers" d=" M 433.5 19.5 L 435.5 17.5" stroke-miterlimit="10" stroke-dasharray=""/><path fill="none" stroke="white" paint-order="fill stroke markers" d=" M 463.5 15.5 L 465.5 17.5" stroke-miterlimit="10" stroke-dasharray=""/><path fill="none" stroke="white" paint-order="fill stroke markers" d=" M 463.5 19.5 L 465.5 17.5" stroke-miterlimit="10" stroke-dasharray=""/><path fill="none" stroke="white" paint-order="fill stroke markers" d=" M 493.5 15.5 L 495.5 17.5" stroke-miterlimit="10" stroke-dasharray=""/><path fill="none" stroke="white" paint-order="fill stroke markers" d=" M 493.5 19.5 L 495.5 17.5" stroke-miterlimit="10" stroke-dasharray=""/><path fill="none" stroke="white" paint-order="fill stroke markers" d=" M 523.5 15.5 L 525.5 17.5" stroke-miterlimit="10" stroke-dasharray=""/><path fill="none" stroke="white" paint-order="fill stroke markers" d=" M 523.5 19.5 L 525.5 17.5" stroke-miterlimit="10" stroke-dasharray=""/><path fill="none" stroke="white" paint-order="fill stroke markers" d=" M 553.5 15.5 L 555.5 17.5" stroke-miterlimit="10" stroke-dasharray=""/><path fill="none" stroke="white" paint-order="fill stroke markers" d=" M 553.5 19.5 L 555.5 17.5" stroke-miterlimit="10" stroke-dasharray=""/><path fill="none" stroke="white" paint-order="fill stroke markers" d=" M 583.5 15.5 L 585.5 17.5" stroke-miterlimit="10" stroke-dasharray=""/><path fill="none" stroke="white" paint-order="fill stroke markers" d=" M 583.5 19.5 L 585.5 17.5" stroke-miterlimit="10" stroke-dasharray=""/><path fill="none" stroke="white" paint-order="fill stroke markers" d=" M 613.5 15.5 L 615.5 17.5" stroke-miterlimit="10" stroke-dasharray=""/><path fill="none" stroke="white" paint-order="fill stroke markers" d=" M 613.5 19.5 L 615.5 17.5" stroke-miterlimit="10" stroke-dasharray=""/><path fill="none" stroke="white" paint-order="fill stroke markers" d=" M 643.5 15.5 L 645.5 17.5" stroke-miterlimit="10" stroke-dasharray=""/><path fill="none" stroke="white" paint-order="fill stroke markers" d=" M 643.5 19.5 L 645.5 17.5" stroke-miterlimit="10" stroke-dasharray=""/><path fill="none" stroke="white" paint-order="fill stroke markers" d=" M 673.5 15.5 L 675.5 17.5" stroke-miterlimit="10" stroke-dasharray=""/><path fill="none" stroke="white" paint-order="fill stroke markers" d=" M 673.5 19.5 L 675.5 17.5" stroke-miterlimit="10" stroke-dasharray=""/><path fill="none" stroke="white" paint-order="fill stroke markers" d=" M 703.5 15.5 L 705.5 17.5" stroke-miterlimit="10" stroke-dasharray=""/><path fill="none" stroke="white" paint-order="fill stroke markers" d=" M 703.5 19.5 L 705.5 17.5" stroke-miterlimit="10" stroke-dasharray=""/><path fill="none" stroke="white" paint-order="fill stroke markers" d=" M 733.5 15.5 L 735.5 17.5" stroke-miterlimit="10" stroke-dasharray=""/><path fill="none" stroke="white" paint-order="fill stroke markers" d=" M 733.5 19.5 L 735.5 17.5" stroke-miterlimit="10" stroke-dasharray=""/><path fill="none" stroke="white" paint-order="fill stroke markers" d=" M 763.5 15.5 L 765.5 17.5" stroke-miterlimit="10" stroke-dasharray=""/><path fill="none" stroke="white" paint-order="fill stroke markers" d=" M 763.5 19.5 L 765.5 17.5" stroke-miterlimit="10" stroke-dasharray=""/><path fill="none" stroke="white" paint-order="fill stroke markers" d=" M 793.5 15.5 L 795.5 17.5" stroke-miterlimit="10" stroke-dasharray=""/><path fill="none" stroke="white" paint-order="fill stroke markers" d=" M 793.5 19.5 L 795.5 17.5" stroke-miterlimit="10" stroke-dasharray=""/><path fill="none" stroke="white" paint-order="fill stroke markers" d=" M 823.5 15.5 L 825.5 17.5" stroke-miterlimit="10" stroke-dasharray=""/><path fill="none" stroke="white" paint-order="fill stroke markers" d=" M 823.5 19.5 L 825.5 17.5" stroke-miterlimit="10" stroke-dasharray=""/><path fill="none" stroke="white" paint-order="fill stroke markers" d=" M 853.5 15.5 L 855.5 17.5" stroke-miterlimit="10" stroke-dasharray=""/><path fill="none" stroke="white" paint-order="fill stroke markers" d=" M 853.5 19.5 L 855.5 17.5" stroke-miterlimit="10" stroke-dasharray=""/><path fill="none" stroke="white" paint-order="fill stroke markers" d=" M 883.5 15.5 L 885.5 17.5" stroke-miterlimit="10" stroke-dasharray=""/><path fill="none" stroke="white" paint-order="fill stroke markers" d=" M 883.5 19.5 L 885.5 17.5" stroke-miterlimit="10" stroke-dasharray=""/><path fill="none" stroke="white" paint-order="fill stroke markers" d=" M 913.5 15.5 L 915.5 17.5" stroke-miterlimit="10" stroke-dasharray=""/><path fill="none" stroke="white" paint-order="fill stroke markers" d=" M 913.5 19.5 L 915.5 17.5" stroke-miterlimit="10" stroke-dasharray=""/><path fill="none" stroke="white" paint-order="fill stroke markers" d=" M 943.5 15.5 L 945.5 17.5" stroke-miterlimit="10" stroke-dasharray=""/><path fill="none" stroke="white" paint-order="fill stroke markers" d=" M 943.5 19.5 L 945.5 17.5" stroke-miterlimit="10" stroke-dasharray=""/><path fill="none" stroke="white" paint-order="fill stroke markers" d=" M 973.5 15.5 L 975.5 17.5" stroke-miterlimit="10" stroke-dasharray=""/><path fill="none" stroke="white" paint-order="fill stroke markers" d=" M 973.5 19.5 L 975.5 17.5" stroke-miterlimit="10" stroke-dasharray=""/><path fill="none" stroke="white" paint-order="fill stroke markers" d=" M 1003.5 15.5 L 1005.5 17.5" stroke-miterlimit="10" stroke-dasharray=""/><path fill="none" stroke="white" paint-order="fill stroke markers" d=" M 1003.5 19.5 L 1005.5 17.5" stroke-miterlimit="10" stroke-dasharray=""/><path fill="none" stroke="white" paint-order="fill stroke markers" d=" M 1033.5 15.5 L 1035.5 17.5" stroke-miterlimit="10" stroke-dasharray=""/><path fill="none" stroke="white" paint-order="fill stroke markers" d=" M 1033.5 19.5 L 1035.5 17.5" stroke-miterlimit="10" stroke-dasharray=""/><path fill="none" stroke="white" paint-order="fill stroke markers" d=" M 1063.5 15.5 L 1065.5 17.5" stroke-miterlimit="10" stroke-dasharray=""/><path fill="none" stroke="white" paint-order="fill stroke markers" d=" M 1063.5 19.5 L 1065.5 17.5" stroke-miterlimit="10" stroke-dasharray=""/><path fill="none" stroke="white" paint-order="fill stroke markers" d=" M 1093.5 15.5 L 1095.5 17.5" stroke-miterlimit="10" stroke-dasharray=""/><path fill="none" stroke="white" paint-order="fill stroke markers" d=" M 1093.5 19.5 L 1095.5 17.5" stroke-miterlimit="10" stroke-dasharray=""/><path fill="none" stroke="white" paint-order="fill stroke markers" d=" M 1123.5 15.5 L 1125.5 17.5" stroke-miterlimit="10" stroke-dasharray=""/><path fill="none" stroke="white" paint-order="fill stroke markers" d=" M 1123.5 19.5 L 1125.5 17.5" stroke-miterlimit="10" stroke-dasharray=""/><path fill="none" stroke="white" paint-order="fill stroke markers" d=" M 1153.5 15.5 L 1155.5 17.5" stroke-miterlimit="10" stroke-dasharray=""/><path fill="none" stroke="white" paint-order="fill stroke markers" d=" M 1153.5 19.5 L 1155.5 17.5" stroke-miterlimit="10" stroke-dasharray=""/><path fill="none" stroke="white" paint-order="fill stroke markers" d=" M 1183.5 15.5 L 1185.5 17.5" stroke-miterlimit="10" stroke-dasharray=""/><path fill="none" stroke="white" paint-order="fill stroke markers" d=" M 1183.5 19.5 L 1185.5 17.5" stroke-miterlimit="10" stroke-dasharray=""/><path fill="none" stroke="white" paint-order="fill stroke markers" d=" M 1213.5 15.5 L 1215.5 17.5" stroke-miterlimit="10" stroke-dasharray=""/><path fill="none" stroke="white" paint-order="fill stroke markers" d=" M 1213.5 19.5 L 1215.5 17.5" stroke-miterlimit="10" stroke-dasharray=""/><path fill="none" stroke="white" paint-order="fill stroke markers" d=" M 1243.5 15.5 L 1245.5 17.5" stroke-miterlimit="10" stroke-dasharray=""/><path fill="none" stroke="white" paint-order="fill stroke markers" d=" M 1243.5 19.5 L 1245.5 17.5" stroke-miterlimit="10" stroke-dasharray=""/><path fill="none" stroke="white" paint-order="fill stroke markers" d=" M 1273.5 15.5 L 1275.5 17.5" stroke-miterlimit="10" stroke-dasharray=""/><path fill="none" stroke="white" paint-order="fill stroke markers" d=" M 1273.5 19.5 L 1275.5 17.5" stroke-miterlimit="10" stroke-dasharray=""/><path fill="none" stroke="white" paint-order="fill stroke markers" d=" M 1303.5 15.5 L 1305.5 17.5" stroke-miterlimit="10" stroke-dasharray=""/><path fill="none" stroke="white" paint-order="fill stroke markers" d=" M 1303.5 19.5 L 1305.5 17.5" stroke-miterlimit="10" stroke-dasharray=""/><path fill="none" stroke="white" paint-order="fill stroke markers" d=" M 1333.5 15.5 L 1335.5 17.5" stroke-miterlimit="10" stroke-dasharray=""/><path fill="none" stroke="white" paint-order="fill stroke markers" d=" M 1333.5 19.5 L 1335.5 17.5" stroke-miterlimit="10" stroke-dasharray=""/><path fill="none" stroke="white" paint-order="fill stroke markers" d=" M 1363.5 15.5 L 1365.5 17.5" stroke-miterlimit="10" stroke-dasharray=""/><path fill="none" stroke="white" paint-order="fill stroke markers" d=" M 1363.5 19.5 L 1365.5 17.5" stroke-miterlimit="10" stroke-dasharray=""/><path fill="none" stroke="white" paint-order="fill stroke markers" d=" M 1393.5 15.5 L 1395.5 17.5" stroke-miterlimit="10" stroke-dasharray=""/><path fill="none" stroke="white" paint-order="fill stroke markers" d=" M 1393.5 19.5 L 1395.5 17.5" stroke-miterlimit="10" stroke-dasharray=""/><path fill="none" stroke="white" paint-order="fill stroke markers" d=" M 1423.5 15.5 L 1425.5 17.5" stroke-miterlimit="10" stroke-dasharray=""/><path fill="none" stroke="white" paint-order="fill stroke markers" d=" M 1423.5 19.5 L 1425.5 17.5" stroke-miterlimit="10" stroke-dasharray=""/><path fill="none" stroke="white" paint-order="fill stroke markers" d=" M 1453.5 15.5 L 1455.5 17.5" stroke-miterlimit="10" stroke-dasharray=""/><path fill="none" stroke="white" paint-order="fill stroke markers" d=" M 1453.5 19.5 L 1455.5 17.5" stroke-miterlimit="10" stroke-dasharray=""/><path fill="none" stroke="white" paint-order="fill stroke markers" d=" M 1483.5 15.5 L 1485.5 17.5" stroke-miterlimit="10" stroke-dasharray=""/><path fill="none" stroke="white" paint-order="fill stroke markers" d=" M 1483.5 19.5 L 1485.5 17.5" stroke-miterlimit="10" stroke-dasharray=""/><path fill="none" stroke="white" paint-order="fill stroke markers" d=" M 1513.5 15.5 L 1515.5 17.5" stroke-miterlimit="10" stroke-dasharray=""/><path fill="none" stroke="white" paint-order="fill stroke markers" d=" M 1513.5 19.5 L 1515.5 17.5" stroke-miterlimit="10" stroke-dasharray=""/><path fill="none" stroke="white" paint-order="fill stroke markers" d=" M 1543.5 15.5 L 1545.5 17.5" stroke-miterlimit="10" stroke-dasharray=""/><path fill="none" stroke="white" paint-order="fill stroke markers" d=" M 1543.5 19.5 L 1545.5 17.5" stroke-miterlimit="10" stroke-dasharray=""/><path fill="none" stroke="white" paint-order="fill stroke markers" d=" M 1573.5 15.5 L 1575.5 17.5" stroke-miterlimit="10" stroke-dasharray=""/><path fill="none" stroke="white" paint-order="fill stroke markers" d=" M 1573.5 19.5 L 1575.5 17.5" stroke-miterlimit="10" stroke-dasharray=""/><path fill="none" stroke="white" paint-order="fill stroke markers" d=" M 1603.5 15.5 L 1605.5 17.5" stroke-miterlimit="10" stroke-dasharray=""/><path fill="none" stroke="white" paint-order="fill stroke markers" d=" M 1603.5 19.5 L 1605.5 17.5" stroke-miterlimit="10" stroke-dasharray=""/><path fill="none" stroke="white" paint-order="fill stroke markers" d=" M 1633.5 15.5 L 1635.5 17.5" stroke-miterlimit="10" stroke-dasharray=""/><path fill="none" stroke="white" paint-order="fill stroke markers" d=" M 1633.5 19.5 L 1635.5 17.5" stroke-miterlimit="10" stroke-dasharray=""/><path fill="none" stroke="white" paint-order="fill stroke markers" d=" M 1663.5 15.5 L 1665.5 17.5" stroke-miterlimit="10" stroke-dasharray=""/><path fill="none" stroke="white" paint-order="fill stroke markers" d=" M 1663.5 19.5 L 1665.5 17.5" stroke-miterlimit="10" stroke-dasharray=""/><path fill="none" stroke="white" paint-order="fill stroke markers" d=" M 1693.5 15.5 L 1695.5 17.5" stroke-miterlimit="10" stroke-dasharray=""/><path fill="none" stroke="white" paint-order="fill stroke markers" d=" M 1693.5 19.5 L 1695.5 17.5" stroke-miterlimit="10" stroke-dasharray=""/><path fill="none" stroke="white" paint-order="fill stroke markers" d=" M 1723.5 15.5 L 1725.5 17.5" stroke-miterlimit="10" stroke-dasharray=""/><path fill="none" stroke="white" paint-order="fill stroke markers" d=" M 1723.5 19.5 L 1725.5 17.5" stroke-miterlimit="10" stroke-dasharray=""/><path fill="none" stroke="white" paint-order="fill stroke markers" d=" M 1753.5 15.5 L 1755.5 17.5" stroke-miterlimit="10" stroke-dasharray=""/><path fill="none" stroke="white" paint-order="fill stroke markers" d=" M 1753.5 19.5 L 1755.5 17.5" stroke-miterlimit="10" stroke-dasharray=""/><path fill="none" stroke="white" paint-order="fill stroke markers" d=" M 1783.5 15.5 L 1785.5 17.5" stroke-miterlimit="10" stroke-dasharray=""/><path fill="none" stroke="white" paint-order="fill stroke markers" d=" M 1783.5 19.5 L 1785.5 17.5" stroke-miterlimit="10" stroke-dasharray=""/><g><rect fill="#FFFFFF" stroke="none" x="799.64599609375" y="26.6318359375" width="187.7080078125" height="11.580078125"/><g><text fill="rgb(0,0,150)" stroke="none" font-family="sans-serif" font-size="10px" font-style="normal" font-weight="normal" text-decoration="normal" x="893.5" y="35" text-anchor="middle" dominant-baseline="alphabetic">NODE_18_length_90002_cov_22.203536</text></g></g></g><g><rect fill="rgb(0,0,150)" stroke="none" x="0" y="40" width="0.8934801448856693" height="14"/><g><rect fill="#FFFFFF" stroke="none" x="-66.15140445880716" y="56.724609375" width="133.1962890625" height="11.3603515625"/><g><text fill="rgb(0,0,150)" stroke="none" font-family="sans-serif" font-size="10px" font-style="normal" font-weight="normal" text-decoration="normal" x="0.44674007244283465" y="65" text-anchor="middle" dominant-baseline="alphabetic">peptide chain release factor 3</text></g></g></g><g><rect fill="rgb(0,0,150)" stroke="none" x="11.853503255483211" y="40" width="81.48538921357303" height="14"/><path fill="none" stroke="white" paint-order="fill stroke markers" d=" M 28.5 45.5 L 26.5 47.5" stroke-miterlimit="10" stroke-dasharray=""/><path fill="none" stroke="white" paint-order="fill stroke markers" d=" M 28.5 49.5 L 26.5 47.5" stroke-miterlimit="10" stroke-dasharray=""/><path fill="none" stroke="white" paint-order="fill stroke markers" d=" M 58.5 45.5 L 56.5 47.5" stroke-miterlimit="10" stroke-dasharray=""/><path fill="none" stroke="white" paint-order="fill stroke markers" d=" M 58.5 49.5 L 56.5 47.5" stroke-miterlimit="10" stroke-dasharray=""/><path fill="none" stroke="white" paint-order="fill stroke markers" d=" M 88.5 45.5 L 86.5 47.5" stroke-miterlimit="10" stroke-dasharray=""/><path fill="none" stroke="white" paint-order="fill stroke markers" d=" M 88.5 49.5 L 86.5 47.5" stroke-miterlimit="10" stroke-dasharray=""/><g/></g><g><rect fill="rgb(0,0,150)" stroke="none" x="93.89483567031844" y="40" width="9.609875336103642" height="14"/><g/></g><g><path fill="none" stroke="rgb(255, 255, 255)" paint-order="fill stroke markers" d=" M 93.5 0.5 L 93.5 300.5" stroke-miterlimit="10" stroke-opacity="0.5" stroke-dasharray=""/></g><g><rect fill="rgb(0,0,150)" stroke="none" x="108.98472256172086" y="40" width="81.96191195751204" height="14"/><path fill="none" stroke="white" paint-order="fill stroke markers" d=" M 121.5 45.5 L 123.5 47.5" stroke-miterlimit="10" stroke-dasharray=""/><path fill="none" stroke="white" paint-order="fill stroke markers" d=" M 121.5 49.5 L 123.5 47.5" stroke-miterlimit="10" stroke-dasharray=""/><path fill="none" stroke="white" paint-order="fill stroke markers" d=" M 151.5 45.5 L 153.5 47.5" stroke-miterlimit="10" stroke-dasharray=""/><path fill="none" stroke="white" paint-order="fill stroke markers" d=" M 151.5 49.5 L 153.5 47.5" stroke-miterlimit="10" stroke-dasharray=""/><path fill="none" stroke="white" paint-order="fill stroke markers" d=" M 181.5 45.5 L 183.5 47.5" stroke-miterlimit="10" stroke-dasharray=""/><path fill="none" stroke="white" paint-order="fill stroke markers" d=" M 181.5 49.5 L 183.5 47.5" stroke-miterlimit="10" stroke-dasharray=""/><g><rect fill="#FFFFFF" stroke="none" x="73.10142072797689" y="56.6318359375" width="153.728515625" height="11.51171875"/><g><text fill="rgb(0,0,150)" stroke="none" font-family="sans-serif" font-size="10px" font-style="normal" font-weight="normal" text-decoration="normal" x="149.9656785404769" y="65" text-anchor="middle" dominant-baseline="alphabetic">homoserine O-succinyltransferase</text></g></g></g><g><rect fill="rgb(0,0,150)" stroke="none" x="190.62895268994023" y="70" width="96.73411701962178" height="14"/><path fill="none" stroke="white" paint-order="fill stroke markers" d=" M 203.5 75.5 L 205.5 77.5" stroke-miterlimit="10" stroke-dasharray=""/><path fill="none" stroke="white" paint-order="fill stroke markers" d=" M 203.5 79.5 L 205.5 77.5" stroke-miterlimit="10" stroke-dasharray=""/><path fill="none" stroke="white" paint-order="fill stroke markers" d=" M 233.5 75.5 L 235.5 77.5" stroke-miterlimit="10" stroke-dasharray=""/><path fill="none" stroke="white" paint-order="fill stroke markers" d=" M 233.5 79.5 L 235.5 77.5" stroke-miterlimit="10" stroke-dasharray=""/><path fill="none" stroke="white" paint-order="fill stroke markers" d=" M 263.5 75.5 L 265.5 77.5" stroke-miterlimit="10" stroke-dasharray=""/><path fill="none" stroke="white" paint-order="fill stroke markers" d=" M 263.5 79.5 L 265.5 77.5" stroke-miterlimit="10" stroke-dasharray=""/><g><rect fill="#FFFFFF" stroke="none" x="161.30411666850114" y="86.6318359375" width="155.3837890625" height="11.51171875"/><g><text fill="rgb(0,0,150)" stroke="none" font-family="sans-serif" font-size="10px" font-style="normal" font-weight="normal" text-decoration="normal" x="238.99601119975114" y="95" text-anchor="middle" dominant-baseline="alphabetic">O-succinylhomoserine (thiol)-lyase</text></g></g></g><g><rect fill="rgb(0,0,150)" stroke="none" x="287.04538788026935" y="40" width="86.48887802493277" height="14"/><path fill="none" stroke="white" paint-order="fill stroke markers" d=" M 300.5 45.5 L 302.5 47.5" stroke-miterlimit="10" stroke-dasharray=""/><path fill="none" stroke="white" paint-order="fill stroke markers" d=" M 300.5 49.5 L 302.5 47.5" stroke-miterlimit="10" stroke-dasharray=""/><path fill="none" stroke="white" paint-order="fill stroke markers" d=" M 330.5 45.5 L 332.5 47.5" stroke-miterlimit="10" stroke-dasharray=""/><path fill="none" stroke="white" paint-order="fill stroke markers" d=" M 330.5 49.5 L 332.5 47.5" stroke-miterlimit="10" stroke-dasharray=""/><path fill="none" stroke="white" paint-order="fill stroke markers" d=" M 360.5 45.5 L 362.5 47.5" stroke-miterlimit="10" stroke-dasharray=""/><path fill="none" stroke="white" paint-order="fill stroke markers" d=" M 360.5 49.5 L 362.5 47.5" stroke-miterlimit="10" stroke-dasharray=""/><g><rect fill="#FFFFFF" stroke="none" x="266.47244408023573" y="56.802734375" width="127.634765625" height="11.4091796875"/><g><text fill="rgb(0,0,150)" stroke="none" font-family="sans-serif" font-size="10px" font-style="normal" font-weight="normal" text-decoration="normal" x="330.28982689273573" y="65" text-anchor="middle" dominant-baseline="alphabetic">Homoserine dehydrogenase</text></g></g></g><g><rect fill="rgb(0,0,150)" stroke="none" x="385.606175418324" y="40" width="79.10277549387791" height="14"/><path fill="none" stroke="white" paint-order="fill stroke markers" d=" M 402.5 45.5 L 400.5 47.5" stroke-miterlimit="10" stroke-dasharray=""/><path fill="none" stroke="white" paint-order="fill stroke markers" d=" M 402.5 49.5 L 400.5 47.5" stroke-miterlimit="10" stroke-dasharray=""/><path fill="none" stroke="white" paint-order="fill stroke markers" d=" M 432.5 45.5 L 430.5 47.5" stroke-miterlimit="10" stroke-dasharray=""/><path fill="none" stroke="white" paint-order="fill stroke markers" d=" M 432.5 49.5 L 430.5 47.5" stroke-miterlimit="10" stroke-dasharray=""/><path fill="none" stroke="white" paint-order="fill stroke markers" d=" M 462.5 45.5 L 460.5 47.5" stroke-miterlimit="10" stroke-dasharray=""/><path fill="none" stroke="white" paint-order="fill stroke markers" d=" M 462.5 49.5 L 460.5 47.5" stroke-miterlimit="10" stroke-dasharray=""/><g/></g><g><rect fill="rgb(0,0,150)" stroke="none" x="492.4266905179885" y="40" width="109.8384924779449" height="14"/><path fill="none" stroke="white" paint-order="fill stroke markers" d=" M 509.5 45.5 L 507.5 47.5" stroke-miterlimit="10" stroke-dasharray=""/><path fill="none" stroke="white" paint-order="fill stroke markers" d=" M 509.5 49.5 L 507.5 47.5" stroke-miterlimit="10" stroke-dasharray=""/><path fill="none" stroke="white" paint-order="fill stroke markers" d=" M 539.5 45.5 L 537.5 47.5" stroke-miterlimit="10" stroke-dasharray=""/><path fill="none" stroke="white" paint-order="fill stroke markers" d=" M 539.5 49.5 L 537.5 47.5" stroke-miterlimit="10" stroke-dasharray=""/><path fill="none" stroke="white" paint-order="fill stroke markers" d=" M 569.5 45.5 L 567.5 47.5" stroke-miterlimit="10" stroke-dasharray=""/><path fill="none" stroke="white" paint-order="fill stroke markers" d=" M 569.5 49.5 L 567.5 47.5" stroke-miterlimit="10" stroke-dasharray=""/><path fill="none" stroke="white" paint-order="fill stroke markers" d=" M 599.5 45.5 L 597.5 47.5" stroke-miterlimit="10" stroke-dasharray=""/><path fill="none" stroke="white" paint-order="fill stroke markers" d=" M 599.5 49.5 L 597.5 47.5" stroke-miterlimit="10" stroke-dasharray=""/><g><rect fill="#FFFFFF" stroke="none" x="492.991444569461" y="56.8271484375" width="108.708984375" height="11.31640625"/><g><text fill="rgb(0,0,150)" stroke="none" font-family="sans-serif" font-size="10px" font-style="normal" font-weight="normal" text-decoration="normal" x="547.345936756961" y="65" text-anchor="middle" dominant-baseline="alphabetic">L-serine ammonia-lyase</text></g></g></g><g><rect fill="rgb(0,0,150)" stroke="none" x="609.1747627830492" y="40" width="19.060909757561035" height="14"/><path fill="none" stroke="white" paint-order="fill stroke markers" d=" M 622.5 45.5 L 624.5 47.5" stroke-miterlimit="10" stroke-dasharray=""/><path fill="none" stroke="white" paint-order="fill stroke markers" d=" M 622.5 49.5 L 624.5 47.5" stroke-miterlimit="10" stroke-dasharray=""/><g/></g><g><rect fill="rgb(0,0,150)" stroke="none" x="634.5893091264638" y="40" width="6.1153752138841355" height="14"/><g/></g><g><rect fill="rgb(0,0,150)" stroke="none" x="639.8310593097931" y="70" width="45.26966067420733" height="14"/><path fill="none" stroke="white" paint-order="fill stroke markers" d=" M 656.5 75.5 L 654.5 77.5" stroke-miterlimit="10" stroke-dasharray=""/><path fill="none" stroke="white" paint-order="fill stroke markers" d=" M 656.5 79.5 L 654.5 77.5" stroke-miterlimit="10" stroke-dasharray=""/><path fill="none" stroke="white" paint-order="fill stroke markers" d=" M 686.5 75.5 L 684.5 77.5" stroke-miterlimit="10" stroke-dasharray=""/><path fill="none" stroke="white" paint-order="fill stroke markers" d=" M 686.5 79.5 L 684.5 77.5" stroke-miterlimit="10" stroke-dasharray=""/><g><rect fill="#FFFFFF" stroke="none" x="556.1314169906468" y="86.802734375" width="212.6689453125" height="11.4091796875"/><g><text fill="rgb(0,0,150)" stroke="none" font-family="sans-serif" font-size="10px" font-style="normal" font-weight="normal" text-decoration="normal" x="662.4658896468968" y="95" text-anchor="middle" dominant-baseline="alphabetic">Polyisoprenoid-binding periplasmic protein YceI</text></g></g></g><g><rect fill="rgb(0,0,150)" stroke="none" x="685.8155040999089" y="40" width="44.793137930268244" height="14"/><path fill="none" stroke="white" paint-order="fill stroke markers" d=" M 702.5 45.5 L 700.5 47.5" stroke-miterlimit="10" stroke-dasharray=""/><path fill="none" stroke="white" paint-order="fill stroke markers" d=" M 702.5 49.5 L 700.5 47.5" stroke-miterlimit="10" stroke-dasharray=""/><g><rect fill="#FFFFFF" stroke="none" x="667.7467410337931" y="56.6318359375" width="80.9306640625" height="11.51171875"/><g><text fill="rgb(0,0,150)" stroke="none" font-family="sans-serif" font-size="10px" font-style="normal" font-weight="normal" text-decoration="normal" x="708.2120730650431" y="65" text-anchor="middle" dominant-baseline="alphabetic">Cytochrome b561</text></g></g></g><g><rect fill="rgb(0,0,150)" stroke="none" x="730.2909602008845" y="70" width="52.65576320526213" height="14"/><path fill="none" stroke="white" paint-order="fill stroke markers" d=" M 747.5 75.5 L 745.5 77.5" stroke-miterlimit="10" stroke-dasharray=""/><path fill="none" stroke="white" paint-order="fill stroke markers" d=" M 747.5 79.5 L 745.5 77.5" stroke-miterlimit="10" stroke-dasharray=""/><path fill="none" stroke="white" paint-order="fill stroke markers" d=" M 777.5 75.5 L 775.5 77.5" stroke-miterlimit="10" stroke-dasharray=""/><path fill="none" stroke="white" paint-order="fill stroke markers" d=" M 777.5 79.5 L 775.5 77.5" stroke-miterlimit="10" stroke-dasharray=""/><g/></g><g><rect fill="rgb(0,0,150)" stroke="none" x="790.5710873091709" y="40" width="284.00755538765816" height="14"/><path fill="none" stroke="white" paint-order="fill stroke markers" d=" M 803.5 45.5 L 805.5 47.5" stroke-miterlimit="10" stroke-dasharray=""/><path fill="none" stroke="white" paint-order="fill stroke markers" d=" M 803.5 49.5 L 805.5 47.5" stroke-miterlimit="10" stroke-dasharray=""/><path fill="none" stroke="white" paint-order="fill stroke markers" d=" M 833.5 45.5 L 835.5 47.5" stroke-miterlimit="10" stroke-dasharray=""/><path fill="none" stroke="white" paint-order="fill stroke markers" d=" M 833.5 49.5 L 835.5 47.5" stroke-miterlimit="10" stroke-dasharray=""/><path fill="none" stroke="white" paint-order="fill stroke markers" d=" M 863.5 45.5 L 865.5 47.5" stroke-miterlimit="10" stroke-dasharray=""/><path fill="none" stroke="white" paint-order="fill stroke markers" d=" M 863.5 49.5 L 865.5 47.5" stroke-miterlimit="10" stroke-dasharray=""/><path fill="none" stroke="white" paint-order="fill stroke markers" d=" M 893.5 45.5 L 895.5 47.5" stroke-miterlimit="10" stroke-dasharray=""/><path fill="none" stroke="white" paint-order="fill stroke markers" d=" M 893.5 49.5 L 895.5 47.5" stroke-miterlimit="10" stroke-dasharray=""/><path fill="none" stroke="white" paint-order="fill stroke markers" d=" M 923.5 45.5 L 925.5 47.5" stroke-miterlimit="10" stroke-dasharray=""/><path fill="none" stroke="white" paint-order="fill stroke markers" d=" M 923.5 49.5 L 925.5 47.5" stroke-miterlimit="10" stroke-dasharray=""/><path fill="none" stroke="white" paint-order="fill stroke markers" d=" M 953.5 45.5 L 955.5 47.5" stroke-miterlimit="10" stroke-dasharray=""/><path fill="none" stroke="white" paint-order="fill stroke markers" d=" M 953.5 49.5 L 955.5 47.5" stroke-miterlimit="10" stroke-dasharray=""/><path fill="none" stroke="white" paint-order="fill stroke markers" d=" M 983.5 45.5 L 985.5 47.5" stroke-miterlimit="10" stroke-dasharray=""/><path fill="none" stroke="white" paint-order="fill stroke markers" d=" M 983.5 49.5 L 985.5 47.5" stroke-miterlimit="10" stroke-dasharray=""/><path fill="none" stroke="white" paint-order="fill stroke markers" d=" M 1013.5 45.5 L 1015.5 47.5" stroke-miterlimit="10" stroke-dasharray=""/><path fill="none" stroke="white" paint-order="fill stroke markers" d=" M 1013.5 49.5 L 1015.5 47.5" stroke-miterlimit="10" stroke-dasharray=""/><path fill="none" stroke="white" paint-order="fill stroke markers" d=" M 1043.5 45.5 L 1045.5 47.5" stroke-miterlimit="10" stroke-dasharray=""/><path fill="none" stroke="white" paint-order="fill stroke markers" d=" M 1043.5 49.5 L 1045.5 47.5" stroke-miterlimit="10" stroke-dasharray=""/><g><rect fill="#FFFFFF" stroke="none" x="839.026036878" y="56.802734375" width="187.09765625" height="11.4091796875"/><g><text fill="rgb(0,0,150)" stroke="none" font-family="sans-serif" font-size="10px" font-style="normal" font-weight="normal" text-decoration="normal" x="932.574865003" y="65" text-anchor="middle" dominant-baseline="alphabetic">Periplasmic ligand-binding sensor domain</text></g></g></g><g><rect fill="rgb(0,0,150)" stroke="none" x="1098.0076776071644" y="40" width="280.6718961800848" height="14"/><path fill="none" stroke="white" paint-order="fill stroke markers" d=" M 1111.5 45.5 L 1113.5 47.5" stroke-miterlimit="10" stroke-dasharray=""/><path fill="none" stroke="white" paint-order="fill stroke markers" d=" M 1111.5 49.5 L 1113.5 47.5" stroke-miterlimit="10" stroke-dasharray=""/><path fill="none" stroke="white" paint-order="fill stroke markers" d=" M 1141.5 45.5 L 1143.5 47.5" stroke-miterlimit="10" stroke-dasharray=""/><path fill="none" stroke="white" paint-order="fill stroke markers" d=" M 1141.5 49.5 L 1143.5 47.5" stroke-miterlimit="10" stroke-dasharray=""/><path fill="none" stroke="white" paint-order="fill stroke markers" d=" M 1171.5 45.5 L 1173.5 47.5" stroke-miterlimit="10" stroke-dasharray=""/><path fill="none" stroke="white" paint-order="fill stroke markers" d=" M 1171.5 49.5 L 1173.5 47.5" stroke-miterlimit="10" stroke-dasharray=""/><path fill="none" stroke="white" paint-order="fill stroke markers" d=" M 1201.5 45.5 L 1203.5 47.5" stroke-miterlimit="10" stroke-dasharray=""/><path fill="none" stroke="white" paint-order="fill stroke markers" d=" M 1201.5 49.5 L 1203.5 47.5" stroke-miterlimit="10" stroke-dasharray=""/><path fill="none" stroke="white" paint-order="fill stroke markers" d=" M 1231.5 45.5 L 1233.5 47.5" stroke-miterlimit="10" stroke-dasharray=""/><path fill="none" stroke="white" paint-order="fill stroke markers" d=" M 1231.5 49.5 L 1233.5 47.5" stroke-miterlimit="10" stroke-dasharray=""/><path fill="none" stroke="white" paint-order="fill stroke markers" d=" M 1261.5 45.5 L 1263.5 47.5" stroke-miterlimit="10" stroke-dasharray=""/><path fill="none" stroke="white" paint-order="fill stroke markers" d=" M 1261.5 49.5 L 1263.5 47.5" stroke-miterlimit="10" stroke-dasharray=""/><path fill="none" stroke="white" paint-order="fill stroke markers" d=" M 1291.5 45.5 L 1293.5 47.5" stroke-miterlimit="10" stroke-dasharray=""/><path fill="none" stroke="white" paint-order="fill stroke markers" d=" M 1291.5 49.5 L 1293.5 47.5" stroke-miterlimit="10" stroke-dasharray=""/><path fill="none" stroke="white" paint-order="fill stroke markers" d=" M 1321.5 45.5 L 1323.5 47.5" stroke-miterlimit="10" stroke-dasharray=""/><path fill="none" stroke="white" paint-order="fill stroke markers" d=" M 1321.5 49.5 L 1323.5 47.5" stroke-miterlimit="10" stroke-dasharray=""/><path fill="none" stroke="white" paint-order="fill stroke markers" d=" M 1351.5 45.5 L 1353.5 47.5" stroke-miterlimit="10" stroke-dasharray=""/><path fill="none" stroke="white" paint-order="fill stroke markers" d=" M 1351.5 49.5 L 1353.5 47.5" stroke-miterlimit="10" stroke-dasharray=""/><g><rect fill="#FFFFFF" stroke="none" x="1203.1566139784568" y="56.802734375" width="70.3740234375" height="9.3974609375"/><g><text fill="rgb(0,0,150)" stroke="none" font-family="sans-serif" font-size="10px" font-style="normal" font-weight="normal" text-decoration="normal" x="1238.3436256972068" y="65" text-anchor="middle" dominant-baseline="alphabetic">histidine kinase</text></g></g></g><g><rect fill="rgb(0,0,150)" stroke="none" x="1394.960767538499" y="40" width="283.5310326437191" height="14"/><path fill="none" stroke="white" paint-order="fill stroke markers" d=" M 1407.5 45.5 L 1409.5 47.5" stroke-miterlimit="10" stroke-dasharray=""/><path fill="none" stroke="white" paint-order="fill stroke markers" d=" M 1407.5 49.5 L 1409.5 47.5" stroke-miterlimit="10" stroke-dasharray=""/><path fill="none" stroke="white" paint-order="fill stroke markers" d=" M 1437.5 45.5 L 1439.5 47.5" stroke-miterlimit="10" stroke-dasharray=""/><path fill="none" stroke="white" paint-order="fill stroke markers" d=" M 1437.5 49.5 L 1439.5 47.5" stroke-miterlimit="10" stroke-dasharray=""/><path fill="none" stroke="white" paint-order="fill stroke markers" d=" M 1467.5 45.5 L 1469.5 47.5" stroke-miterlimit="10" stroke-dasharray=""/><path fill="none" stroke="white" paint-order="fill stroke markers" d=" M 1467.5 49.5 L 1469.5 47.5" stroke-miterlimit="10" stroke-dasharray=""/><path fill="none" stroke="white" paint-order="fill stroke markers" d=" M 1497.5 45.5 L 1499.5 47.5" stroke-miterlimit="10" stroke-dasharray=""/><path fill="none" stroke="white" paint-order="fill stroke markers" d=" M 1497.5 49.5 L 1499.5 47.5" stroke-miterlimit="10" stroke-dasharray=""/><path fill="none" stroke="white" paint-order="fill stroke markers" d=" M 1527.5 45.5 L 1529.5 47.5" stroke-miterlimit="10" stroke-dasharray=""/><path fill="none" stroke="white" paint-order="fill stroke markers" d=" M 1527.5 49.5 L 1529.5 47.5" stroke-miterlimit="10" stroke-dasharray=""/><path fill="none" stroke="white" paint-order="fill stroke markers" d=" M 1557.5 45.5 L 1559.5 47.5" stroke-miterlimit="10" stroke-dasharray=""/><path fill="none" stroke="white" paint-order="fill stroke markers" d=" M 1557.5 49.5 L 1559.5 47.5" stroke-miterlimit="10" stroke-dasharray=""/><path fill="none" stroke="white" paint-order="fill stroke markers" d=" M 1587.5 45.5 L 1589.5 47.5" stroke-miterlimit="10" stroke-dasharray=""/><path fill="none" stroke="white" paint-order="fill stroke markers" d=" M 1587.5 49.5 L 1589.5 47.5" stroke-miterlimit="10" stroke-dasharray=""/><path fill="none" stroke="white" paint-order="fill stroke markers" d=" M 1617.5 45.5 L 1619.5 47.5" stroke-miterlimit="10" stroke-dasharray=""/><path fill="none" stroke="white" paint-order="fill stroke markers" d=" M 1617.5 49.5 L 1619.5 47.5" stroke-miterlimit="10" stroke-dasharray=""/><path fill="none" stroke="white" paint-order="fill stroke markers" d=" M 1647.5 45.5 L 1649.5 47.5" stroke-miterlimit="10" stroke-dasharray=""/><path fill="none" stroke="white" paint-order="fill stroke markers" d=" M 1647.5 49.5 L 1649.5 47.5" stroke-miterlimit="10" stroke-dasharray=""/><g><rect fill="#FFFFFF" stroke="none" x="1501.5392721416088" y="56.802734375" width="70.3740234375" height="9.3974609375"/><g><text fill="rgb(0,0,150)" stroke="none" font-family="sans-serif" font-size="10px" font-style="normal" font-weight="normal" text-decoration="normal" x="1536.7262838603588" y="65" text-anchor="middle" dominant-baseline="alphabetic">histidine kinase</text></g></g></g><g><rect fill="rgb(0,0,150)" stroke="none" x="1709.7040399102243" y="40" width="77.29596008977569" height="14"/><path fill="none" stroke="white" paint-order="fill stroke markers" d=" M 1722.5 45.5 L 1724.5 47.5" stroke-miterlimit="10" stroke-dasharray=""/><path fill="none" stroke="white" paint-order="fill stroke markers" d=" M 1722.5 49.5 L 1724.5 47.5" stroke-miterlimit="10" stroke-dasharray=""/><path fill="none" stroke="white" paint-order="fill stroke markers" d=" M 1752.5 45.5 L 1754.5 47.5" stroke-miterlimit="10" stroke-dasharray=""/><path fill="none" stroke="white" paint-order="fill stroke markers" d=" M 1752.5 49.5 L 1754.5 47.5" stroke-miterlimit="10" stroke-dasharray=""/><path fill="none" stroke="white" paint-order="fill stroke markers" d=" M 1782.5 45.5 L 1784.5 47.5" stroke-miterlimit="10" stroke-dasharray=""/><path fill="none" stroke="white" paint-order="fill stroke markers" d=" M 1782.5 49.5 L 1784.5 47.5" stroke-miterlimit="10" stroke-dasharray=""/><g><rect fill="#FFFFFF" stroke="none" x="1713.1650082363622" y="56.802734375" width="70.3740234375" height="9.3974609375"/><g><text fill="rgb(0,0,150)" stroke="none" font-family="sans-serif" font-size="10px" font-style="normal" font-weight="normal" text-decoration="normal" x="1748.3520199551122" y="65" text-anchor="middle" dominant-baseline="alphabetic">histidine kinase</text></g></g></g></g><g transform="translate(58,79)" clip-path="url(#Galaxy35Baktaondata27_AnnotationandsequencesGFF3gff3_track_label_guid_sgn0_clip_rect)"><rect fill="white" stroke="none" x="0" y="0" width="409.421875" height="15"/><text fill="rgb(68, 68, 68)" stroke="none" font-family="Arial" font-size="12px" font-style="normal" font-weight="normal" text-decoration="normal" x="25.4072265625" y="12.9" text-anchor="start" dominant-baseline="alphabetic">Galaxy35-[Bakta on data 27_ Annotation and sequences (GFF3)].gff3</text><rect fill="none" stroke="rgb(68, 68, 68)" x="0" y="0" width="409.421875" height="15" stroke-miterlimit="10" stroke-dasharray=""/></g></g></svg>